<svg xmlns="http://www.w3.org/2000/svg" xmlns:xlink="http://www.w3.org/1999/xlink" version="1.1" x="0px" y="0px" viewBox="0 0 100 100" enable-background="new 0 0 100 100" xml:space="preserve"><path d="M87.065,27.084L51.315,6.443c-0.814-0.47-1.816-0.47-2.629,0l-35.75,20.641c-0.813,0.469-1.314,1.337-1.314,2.276v41.28  c0,0.939,0.501,1.807,1.314,2.276l35.75,20.641c0.406,0.235,0.86,0.353,1.314,0.353s0.908-0.118,1.315-0.353l35.75-20.641  c0.813-0.469,1.314-1.337,1.314-2.276V29.36C88.379,28.421,87.878,27.553,87.065,27.084z M62.442,57.886H36.636l13.294-23.46  L62.442,57.886z M32.256,54.952L18.799,31.6h26.69L32.256,54.952z M62.122,63.144L49.93,85.623L36.976,63.144H62.122z M66.702,54.7  l-12.32-23.1h24.849L66.702,54.7z M52.629,26.342v-13.07l22.637,13.07H52.629z M47.371,26.342H24.734l22.637-13.07V26.342z   M16.879,38.798l11.894,20.639l-11.894,6.996V38.798z M31.398,63.993l11.67,20.251L19.804,70.812L31.398,63.993z M67.875,63.564  l12.321,7.248L56.535,84.473L67.875,63.564z M70.384,58.939l12.737-23.485v30.977L70.384,58.939z"/></svg>