<?xml version="1.0" encoding="utf-8"?>
<!-- Generator: Adobe Illustrator 22.1.0, SVG Export Plug-In . SVG Version: 6.00 Build 0)  -->
<svg version="1.1" id="Layer_1" xmlns="http://www.w3.org/2000/svg" xmlns:xlink="http://www.w3.org/1999/xlink" x="0px" y="0px"
	 viewBox="450 100 580 580"  xml:space="preserve" style="fill: currentColor">
<g>
	<polygon points="735,262 507,253 731,107 	"/>
</g>
<path d="M734.7,276.7"/>
<polygon points="600,464 500,258 726,274 "/>
<g>
	<polygon points="731,666 607,491 848,493 	"/>
</g>
<g>
	<polygon points="507,547 596,475 500,272 	"/>
</g>
<g>
	<polygon points="743,263 968,258 740,103 	"/>
</g>
<polygon points="859,475 971.2,263.8 746,274 "/>
<g>
	<polygon points="962,543 869,482 972,277 	"/>
</g>
<g>
	<polygon points="722,673 507.3,555.3 597,491 	"/>
</g>
<g>
	<polygon points="962,552 740,673 859,491 	"/>
</g>
<path d="M772.1,412.2c6.9-4,10.4-8.8,10.4-14.4c0-7.5-6-11.3-18.1-11.3l-2.9,25.8c1.9,0.2,3.6,0.2,5,0.2
	C768,412.5,769.9,412.4,772.1,412.2z"/>
<path d="M768.1,416.3l-1.3,0l-2.3,0.1l-2.2-0.1l-1.3,0l-0.7,6.5l-0.4,4.1c-0.6,4.8-1.5,8.3-2.9,10.2s-4.3,4.1-8.8,6.4
	c6.4,1.1,12.8,1.6,19.1,1.6c10.2,0,15.3-4,15.3-12.1c0-3.5-1.4-6.8-4.2-10.1C775.5,419.6,772.1,417.4,768.1,416.3z"/>
<path d="M737,279L597.2,483.8h256.7L737,279z M720.9,392.1l-0.9,2.1c-0.8,1.7-1.7,2.5-2.9,2.5c-0.2,0-0.6,0-1-0.1
	c0.5-1,0.7-1.8,0.7-2.5c0-2.2-1.5-4.1-4.4-5.7c-2.9-1.6-6.3-2.4-10.2-2.4c-8,0-14.4,3.1-19.4,9.4c-5,6.3-7.5,14.4-7.5,24.5
	c0,7.8,1.7,14,5.2,18.6c3.5,4.6,8.1,6.9,14,6.9c4.2,0,8.4-1.3,12.6-3.8c4.2-2.5,7.3-5.6,9.3-9.4c0.7,0.4,1.1,0.9,1.1,1.6
	c0,2.1-2,5-5.9,8.5c-6.7,6-14.3,8.9-22.8,8.9c-6.9,0-12.3-2.5-16.4-7.4c-4.1-5-6.1-11.6-6.1-20c0-11.9,3.8-22,11.5-30
	c7.6-8.1,17.1-12.1,28.5-12.1c5.8,0,11.7,1.1,17.9,3.3L720.9,392.1z M780.2,444.4c-6.3,3.7-14.8,5.6-25.5,5.6
	c-6.5,0-14.4-0.6-23.5-1.9l6.2-6.6l1.5,0.3c2,0.5,3.8,0.9,5.6,1.1c2.6-1.6,4.4-3.6,5.3-5.9c0.9-2.3,1.8-6.8,2.5-13.4l4.1-36.7
	c-6.8,0.5-12.2,2.3-16.2,5.5c-4,3.2-6,7.1-6,11.9c0,2.9,0.7,5.6,2.1,8.1l-7.9,6.9c-0.7-2.5-1-5-1-7.6c0-8.8,3.8-16,11.3-21.6
	c7.5-5.6,17.1-8.4,28.8-8.4c15.1,0,22.6,4.3,22.6,13c0,7.4-5.2,13.3-15.7,17.7c10.2,3.7,15.4,9.4,15.4,17.1
	C789.7,435.7,786.6,440.7,780.2,444.4z"/>
</svg>
