<svg xmlns="http://www.w3.org/2000/svg" xmlns:xlink="http://www.w3.org/1999/xlink" version="1.1" x="0px" y="0px" viewBox="0 0 100 100" enable-background="new 0 0 100 100" xml:space="preserve"><path d="M68.835,12.853C81.057,12.853,91,22.796,91,35.019c0,26.395-32.808,46.858-41.003,51.557C41.792,81.881,9,61.46,9,35.019  c0-12.222,9.944-22.166,22.166-22.166c6.047,0,11.699,2.396,15.916,6.747l2.828,2.918l0.074-0.074l0.091,0.092l2.844-2.934  C57.135,15.25,62.787,12.853,68.835,12.853 M68.835,8.853c-7.375,0-14.033,3.056-18.79,7.965l-0.046-0.046l-0.045,0.045  c-4.757-4.908-11.414-7.963-18.788-7.963C16.715,8.853,5,20.567,5,35.019C5,67.87,49.999,91.146,49.999,91.146S95,67.87,95,35.019  C95,20.567,83.285,8.853,68.835,8.853L68.835,8.853z"/><path fill-rule="evenodd" clip-rule="evenodd" fill="none" stroke="#000000" stroke-width="4" stroke-miterlimit="10" d="  M8.204,51.309"/></svg>