<svg xmlns="http://www.w3.org/2000/svg" xmlns:xlink="http://www.w3.org/1999/xlink" version="1.1" x="0px" y="0px" viewBox="0 0 64 64" style="enable-background:new 0 0 64 64;" xml:space="preserve"><path d="M55.774,55.56C60.238,51.041,63,44.838,63,38s-2.762-13.041-7.226-17.56c-0.035-0.038-0.06-0.081-0.096-0.118  c-0.037-0.037-0.081-0.061-0.118-0.096C51.042,15.762,44.838,13,38,13c-6.838,0-13.041,2.762-17.559,7.226  c-0.038,0.035-0.082,0.06-0.118,0.097c-0.037,0.037-0.061,0.081-0.096,0.118C15.762,24.959,13,31.162,13,38  c0,2.43,0.355,4.777,1.005,7h-1.907l2.927-31.211L8,0.912L0.976,13.789L3.902,45H1v6h3v8c0,2.206,1.794,4,4,4s4-1.794,4-4v-8h3  v-3.207c1.245,2.914,3.03,5.544,5.226,7.766c0.035,0.038,0.06,0.081,0.096,0.118s0.081,0.061,0.118,0.096  C24.959,60.238,31.162,63,38,63s13.041-2.762,17.56-7.226c0.038-0.035,0.081-0.06,0.118-0.096S55.739,55.597,55.774,55.56z   M3.024,14.21L7,6.922V39h2V6.922l3.976,7.289L10.09,45H9v-4H7v4H5.91L3.024,14.21z M10,59c0,1.103-0.897,2-2,2s-2-0.897-2-2v-8h4  V59z M13,49h-1H4H3v-2h1.09h7.82H13V49z M54.154,54.353c-1.177,1.069-2.998,1.045-4.133-0.09c-1.169-1.169-1.169-3.073,0-4.243  c1.169-1.168,3.072-1.169,4.243,0c1.135,1.136,1.158,2.957,0.09,4.133C54.287,54.22,54.221,54.287,54.154,54.353z M21.646,54.153  c-1.068-1.176-1.045-2.997,0.09-4.133c1.169-1.168,3.072-1.169,4.243,0c1.169,1.17,1.169,3.074,0,4.243  c-1.135,1.134-2.956,1.159-4.133,0.09C21.779,54.287,21.713,54.22,21.646,54.153z M21.847,21.646  c0.57-0.518,1.288-0.787,2.011-0.787c0.769,0,1.537,0.292,2.122,0.877c1.169,1.169,1.169,3.073,0,4.243  c-1.169,1.168-3.072,1.169-4.243,0c-1.135-1.136-1.158-2.957-0.09-4.133C21.713,21.78,21.779,21.713,21.847,21.646z M54.354,21.847  c1.068,1.176,1.045,2.997-0.09,4.133c-1.169,1.168-3.072,1.169-4.243,0c-1.169-1.17-1.169-3.074,0-4.243  c0.585-0.584,1.354-0.877,2.122-0.877c0.723,0,1.44,0.269,2.011,0.787C54.221,21.713,54.287,21.78,54.354,21.847z M58,33  c-1.317,0-2.509,0.522-3.403,1.358c-0.437-1.993-1.228-3.852-2.298-5.518c1.228-0.038,2.444-0.512,3.379-1.447  c0.673-0.674,1.098-1.497,1.306-2.361c1.767,2.578,3.019,5.533,3.616,8.717C59.84,33.283,58.955,33,58,33z M61,38  c0,1.654-1.346,3-3,3s-3-1.346-3-3s1.346-3,3-3S61,36.346,61,38z M51,45.451V43h-2v5.164c-1.148,1.241-2.494,2.294-4,3.093V24.744  c1.506,0.799,2.852,1.851,4,3.093V41h2V30.549c1.265,2.198,2,4.738,2,7.451S52.265,43.253,51,45.451z M31,29v22.256  c-1.506-0.799-2.852-1.851-4-3.093V27.836c1.148-1.241,2.494-2.294,4-3.093V27h2v-3.125c1.265-0.449,2.605-0.732,4-0.824v29.899  c-1.395-0.093-2.735-0.375-4-0.824V29H31z M25,30.549v14.903c-1.265-2.198-2-4.738-2-7.451S23.735,32.747,25,30.549z M39,52.949  V23.051c1.395,0.093,2.735,0.375,4,0.824v28.25C41.735,52.574,40.395,52.857,39,52.949z M48.606,20.322  c-0.935,0.935-1.409,2.151-1.447,3.379c-1.665-1.071-3.524-1.861-5.517-2.298C42.478,20.509,43,19.317,43,18  c0-0.955-0.283-1.84-0.75-2.6c3.184,0.598,6.139,1.849,8.717,3.616C50.103,19.225,49.28,19.649,48.606,20.322z M41,18  c0,1.654-1.346,3-3,3s-3-1.346-3-3s1.346-3,3-3S41,16.346,41,18z M34.358,21.403c-1.993,0.437-3.852,1.228-5.517,2.298  c-0.038-1.228-0.512-2.444-1.447-3.379c-0.674-0.673-1.497-1.098-2.361-1.306c2.578-1.767,5.533-3.019,8.717-3.616  C33.283,16.16,33,17.045,33,18C33,19.317,33.522,20.509,34.358,21.403z M20.322,27.394c0.935,0.935,2.151,1.409,3.379,1.447  c-1.071,1.665-1.861,3.524-2.298,5.517C20.509,33.522,19.317,33,18,33c-0.955,0-1.84,0.283-2.6,0.75  c0.598-3.184,1.85-6.139,3.616-8.717C19.225,25.897,19.649,26.72,20.322,27.394z M18,35c1.654,0,3,1.346,3,3s-1.346,3-3,3  s-3-1.346-3-3S16.346,35,18,35z M18,43c1.317,0,2.509-0.522,3.403-1.358c0.437,1.993,1.228,3.852,2.298,5.517  c-1.228,0.038-2.445,0.512-3.379,1.447c-0.673,0.674-1.098,1.497-1.306,2.361c-1.767-2.578-3.019-5.533-3.616-8.717  C16.16,42.717,17.045,43,18,43z M27.394,55.678c0.935-0.935,1.409-2.151,1.447-3.379c1.665,1.071,3.524,1.861,5.517,2.298  C33.522,55.491,33,56.683,33,58c0,0.955,0.283,1.84,0.75,2.6c-3.184-0.598-6.139-1.849-8.717-3.616  C25.897,56.775,26.72,56.351,27.394,55.678z M35,58c0-1.654,1.346-3,3-3s3,1.346,3,3s-1.346,3-3,3S35,59.654,35,58z M41.642,54.597  c1.993-0.437,3.852-1.228,5.517-2.298c0.038,1.228,0.512,2.444,1.447,3.379c0.673,0.673,1.497,1.098,2.361,1.306  c-2.578,1.767-5.533,3.019-8.717,3.616C42.717,59.84,43,58.955,43,58C43,56.683,42.478,55.491,41.642,54.597z M55.678,48.606  c-0.935-0.935-2.152-1.409-3.379-1.447c1.071-1.665,1.861-3.524,2.298-5.518C55.491,42.478,56.683,43,58,43  c0.955,0,1.84-0.283,2.6-0.75c-0.598,3.184-1.85,6.139-3.616,8.717C56.775,50.103,56.351,49.28,55.678,48.606z"/></svg>