<svg xmlns="http://www.w3.org/2000/svg" xmlns:xlink="http://www.w3.org/1999/xlink" version="1.1" x="0px" y="0px" viewBox="0 0 100 100" style="enable-background:new 0 0 100 100;" xml:space="preserve"><style type="text/css">
	.st0{clip-path:url(#x);}
	.st1{opacity:0.54;clip-path:url(#w);}
	.st2{clip-path:url(#v);}
	.st3{opacity:0.54;clip-path:url(#u);}
	.st4{clip-path:url(#t);}
	.st5{opacity:0.54;clip-path:url(#s);}
	.st6{clip-path:url(#r);}
	.st7{opacity:0.54;clip-path:url(#q);}
	.st8{clip-path:url(#p);}
	.st9{opacity:0.54;clip-path:url(#o);}
	.st10{clip-path:url(#n);}
	.st11{opacity:0.54;clip-path:url(#m);}
</style><g><defs><path id="l" d="M-410-243c-2.2,0-4,1.9-4,4.2c0,2.3,1.8,4.2,4,4.2c2.2,0,4-1.9,4-4.2C-406-241.1-407.8-243-410-243"/></defs><clipPath id="x"><use xlink:href="#l" style="" overflow="visible"/></clipPath><g class="st0"><defs><rect id="k" x="-605" y="-721" width="1280" height="1514"/></defs><clipPath id="w"><use xlink:href="#k" style="" overflow="visible"/></clipPath><rect x="-419" y="-248" class="st1" width="18" height="18.3"/></g></g><g><defs><path id="j" d="M-394-243c-2.2,0-4,1.9-4,4.2c0,2.3,1.8,4.2,4,4.2c2.2,0,4-1.9,4-4.2C-390-241.1-391.8-243-394-243"/></defs><clipPath id="v"><use xlink:href="#j" style="" overflow="visible"/></clipPath><g class="st2"><defs><rect id="i" x="-605" y="-721" width="1280" height="1514"/></defs><clipPath id="u"><use xlink:href="#i" style="" overflow="visible"/></clipPath><rect x="-403" y="-248" class="st3" width="18" height="18.3"/></g></g><g><defs><path id="h" d="M-386.8-267.5h-26.1c-0.3-1.2-0.6-2.4-0.9-3.5c-0.4-1.2-1.2-1.8-2.2-2c-0.1,0-0.2-0.1-0.3-0.1h-0.1h-8.1    h-1.3c-0.7,0-1.3,0.6-1.3,1.4v2.8c0,0.8,0.6,1.4,1.3,1.4h1.3h6c1.6,6.2,3.1,13.9,4.8,20.1c0.5,1.3,1.3,2,2.6,2h20.2    c1.1,0,2.3-0.8,2.6-2c1.3-5.3,2.6-10.7,3.9-16.1c0.1-0.4,0.2-0.8,0.3-1.3C-384.1-266.2-385.3-267.5-386.8-267.5z M-393-250.8h-16    c-0.6-2.5-1.2-5.1-1.8-7.8c-0.2-1.1-0.5-2.2-0.7-3.3h21.2L-393-250.8z"/></defs><clipPath id="t"><use xlink:href="#h" style="" overflow="visible"/></clipPath><g class="st4"><defs><rect id="g" x="-605" y="-721" width="1280" height="1514"/></defs><clipPath id="s"><use xlink:href="#g" style="" overflow="visible"/></clipPath><rect x="-432" y="-278" class="st5" width="52.9" height="37.7"/></g></g><g><defs><path id="f" d="M-410-292c-2.2,0-4,1.9-4,4.2s1.8,4.2,4,4.2c2.2,0,4-1.9,4-4.2S-407.8-292-410-292"/></defs><clipPath id="r"><use xlink:href="#f" style="" overflow="visible"/></clipPath><g class="st6"><defs><rect id="e" x="-605" y="-770" width="1280" height="1514"/></defs><clipPath id="q"><use xlink:href="#e" style="" overflow="visible"/></clipPath><rect x="-419" y="-297" class="st7" width="18" height="18.3"/></g></g><g><defs><path id="d" d="M-394-292c-2.2,0-4,1.9-4,4.2s1.8,4.2,4,4.2c2.2,0,4-1.9,4-4.2S-391.8-292-394-292"/></defs><clipPath id="p"><use xlink:href="#d" style="" overflow="visible"/></clipPath><g class="st8"><defs><rect id="c" x="-605" y="-770" width="1280" height="1514"/></defs><clipPath id="o"><use xlink:href="#c" style="" overflow="visible"/></clipPath><rect x="-403" y="-297" class="st9" width="18" height="18.3"/></g></g><g><defs><path id="b" d="M-386.8-316.5h-26.1c-0.3-1.2-0.6-2.4-0.9-3.5c-0.4-1.2-1.2-1.8-2.2-2c-0.1,0-0.2-0.1-0.3-0.1h-0.1h-8.1    h-1.3c-0.7,0-1.3,0.6-1.3,1.4v2.8c0,0.8,0.6,1.4,1.3,1.4h1.3h6c1.6,6.2,3.1,13.9,4.8,20.1c0.5,1.3,1.3,2,2.6,2h20.2    c1.1,0,2.3-0.8,2.6-2c1.3-5.3,2.6-10.7,3.9-16.1c0.1-0.4,0.2-0.8,0.3-1.3C-384.1-315.2-385.3-316.5-386.8-316.5z M-393-299.8h-16    c-0.6-2.5-1.2-5.1-1.8-7.8c-0.2-1.1-0.5-2.2-0.7-3.3h21.2L-393-299.8z"/></defs><clipPath id="n"><use xlink:href="#b" style="" overflow="visible"/></clipPath><g class="st10"><defs><rect id="a" x="-605" y="-770" width="1280" height="1514"/></defs><clipPath id="m"><use xlink:href="#a" style="" overflow="visible"/></clipPath><rect x="-432" y="-327" class="st11" width="52.9" height="37.7"/></g></g><path d="M50,8.4c-15.5,0-29.5,4.2-37.4,9.3V18v4.4v21c0,37.5,36.5,48,36.9,48.1l0.6,0.2l0.6-0.2c0.4-0.2,36.9-10.3,36.9-48.1V22.4  V18v-0.2C79.6,12.6,65.5,8.4,50,8.4z M83.7,43.4c0,33-28.9,42.5-33.7,44.4c-4.7-2.1-33.7-12.2-33.7-44.6V20  c7.1-3.9,19.2-7.8,33.7-7.8c14.6,0,26.7,3.9,33.7,7.8V43.4z"/></svg>